<?xml version="1.0" standalone="no"?>
<!DOCTYPE svg PUBLIC "-//W3C//DTD SVG 1.1//EN" "http://www.w3.org/Graphics/SVG/1.1/DTD/svg11.dtd" >
<svg xmlns="http://www.w3.org/2000/svg">
<metadata></metadata>
<defs>
<font id="corporal_jnlregular" horiz-adv-x="472" >
<font-face units-per-em="1000" ascent="800" descent="-200" />
<missing-glyph horiz-adv-x="269" />
<glyph horiz-adv-x="0" />
<glyph unicode="&#xd;" horiz-adv-x="269" />
<glyph unicode=" "  horiz-adv-x="269" />
<glyph unicode="&#x09;" horiz-adv-x="269" />
<glyph unicode="&#xa0;" horiz-adv-x="269" />
<glyph unicode="!" horiz-adv-x="199" d="M93 0q-25 0 -41.5 17.5t-16.5 41.5q0 25 17 41.5t41 16.5t41.5 -16.5t17.5 -41.5q0 -26 -17 -42.5t-42 -16.5zM35 760h129l-38 -599h-63z" />
<glyph unicode="&#x22;" horiz-adv-x="332" d="M93 643q-25 0 -41.5 17t-16.5 41t16.5 41.5t41.5 17.5q18 0 32.5 -9.5t21.5 -27t4.5 -38t-21.5 -45.5t-53 -47q20 25 16 50zM236 643q-25 0 -42 17t-17 41q0 26 17.5 42.5t41.5 16.5q31 0 49 -25t3.5 -66t-69.5 -76q20 25 17 50z" />
<glyph unicode="#" horiz-adv-x="659" d="M587 445h-91l-50 -99h110l-36 -73h-110l-92 -184h-73l92 184h-37l36 73h38l49 99h-47l37 74h47l76 152h73l-76 -152h91zM323 519h47l-37 -74h-47l-50 -99h50l-36 -73h-50l-92 -184h-73l92 184h-89l36 73h90l49 99h-107l37 74h107l76 152h73z" />
<glyph unicode="$" horiz-adv-x="399" d="M364 254q0 -53 -33.5 -97.5t-100.5 -61.5v96q42 21 42 63q0 47 -72 88l-92 63q-53 45 -54 96q-2 146 128 164v-94q-32 -1 -32 -50q-2 -27 47 -63l85 -57q82 -57 82 -147zM232 665q44 -6 77.5 -40t38.5 -93l-92 -12q2 37 -24 51v94zM183 95q-58 3 -103 55.5t-38 118.5 l95 11q-2 -76 46 -91v-94zM172 760h69v-60h-69v60zM172 60h69v-60h-69v60z" />
<glyph unicode="%" horiz-adv-x="633" d="M457 760h39l-320 -760h-39zM129 685q-21 0 -26 -45v-180q0 -41 31 -54v-74q-81 14 -91 127q-8 107 -3 172q-1 116 89 129v-75zM193 460v180q-4 45 -26 45v75q86 -12 89 -129q1 -16 2 -45.5t1.5 -46t1 -42.5t-1.5 -41.5t-5.5 -36t-10.5 -32.5t-17 -24.5t-24.5 -20 t-32.5 -10.5v74q24 4 24 54zM441 128q0 -42 31 -54v-74q-82 13 -91 127q-9 107 -3 172q-1 116 89 128v-74q-22 -1 -26 -45v-180zM530 128v180q-4 44 -25 45v74q85 -11 89 -128q0 -16 1.5 -46t2 -46.5t0.5 -43t-2.5 -41.5t-6 -35.5t-10.5 -32.5t-16.5 -24.5t-24 -19.5 t-32.5 -10v74q24 3 24 54z" />
<glyph unicode="&#x26;" horiz-adv-x="592" d="M291 760q62 -3 104 -47t42 -112q0 -83 -68 -166l-65 97q18 32 18 65q0 42 -31 46v117zM536 133q11 0 21 7v-140q-113 -1 -193 120l-228 345q-37 56 -37 121q2 156 142 174v-116q-27 -15 -28 -57q0 -22 18 -49l139 -206q66 76 149 73v-110q-55 -10 -86 -57l42 -70 q35 -35 61 -35zM161 177q0 -38 29 -47t73 23l72 -101q-59 -52 -127 -52q-85 0 -148 84q-25 62 -25 116q0 105 95 162l76 -114q-45 -28 -45 -71z" />
<glyph unicode="'" horiz-adv-x="189" d="M93 643q-25 0 -41.5 17t-16.5 41t16.5 41.5t41.5 17.5q18 0 32.5 -9.5t21.5 -27t4.5 -38t-21.5 -45.5t-53 -47q20 25 16 50z" />
<glyph unicode="(" horiz-adv-x="244" d="M161 586v-399q0 -76 48 -96v-131q-145 24 -161 225q-13 161 -6 385q6 206 166 229v-133q-23 3 -35 -21.5t-12 -58.5z" />
<glyph unicode=")" horiz-adv-x="244" d="M84 586q0 35 -12 59t-36 21v133q160 -23 166 -229q7 -224 -6 -385q-16 -201 -161 -225v131q49 20 49 96v399z" />
<glyph unicode="*" horiz-adv-x="332" d="M163 613q-2 15 -14.5 55.5t-12.5 59.5q0 32 36 32q38 0 38 -35q0 -16 -5.5 -36t-12 -41t-8.5 -34q62 75 80 75q33 0 33 -34q0 -15 -44 -35l-59 -23l61 -14q39 -13 39 -37q0 -27 -30 -27q-12 0 -77 51q1 -12 11.5 -51.5t10.5 -55.5q0 -49 -38 -49q-34 0 -34 44 q0 19 26 107q-60 -65 -85 -65q-26 0 -26 26q0 15 40 37l55 26l-65 16q-47 14 -47 32q0 13 9.5 22t23.5 9q23 -9 95 -55z" />
<glyph unicode="+" horiz-adv-x="416" d="M169 213v134h-134v77h134v135h77v-135h135v-77h-135v-134h-77z" />
<glyph unicode="," horiz-adv-x="189" d="M93 2q-25 0 -41.5 17t-16.5 41q0 25 17 42t41 17q18 0 32.5 -9.5t21.5 -27t4.5 -38t-21.5 -45.5t-53 -48q20 26 16 51z" />
<glyph unicode="-" horiz-adv-x="276" d="M15 444h246v-117h-246v117z" />
<glyph unicode="." horiz-adv-x="187" d="M93 0q-25 0 -41.5 17.5t-16.5 41.5q0 25 17 41.5t41 16.5t41.5 -16.5t17.5 -41.5q0 -26 -17 -42.5t-42 -16.5z" />
<glyph unicode="/" horiz-adv-x="419" d="M345 760h39l-310 -760h-39z" />
<glyph unicode="0" horiz-adv-x="473" d="M157 227q0 -74 55 -96v-131q-145 23 -162 226q-15 190 -6 305q-2 207 158 229v-133q-43 -2 -45 -80v-320zM316 227v320q-3 72 -46 80v133q153 -21 159 -229q11 -113 6 -305q-17 -203 -162 -226v131q43 7 43 96z" />
<glyph unicode="1" horiz-adv-x="253" d="M203 760v-760h-130v601h-58v91q46 16 58 68h130z" />
<glyph unicode="2" horiz-adv-x="461" d="M44 0v116h382v-116h-382zM200 760v-107q-61 -5 -65 -109l-100 50q-1 143 165 166zM48 163q17 66 81 153q61 70 126 124q51 38 55 120q-5 79 -51 92v108q155 -26 161 -200q5 -142 -86 -203q-7 -7 -29 -27.5t-29 -27t-24 -23.5t-23 -24.5t-17.5 -21.5t-16.5 -24t-10.5 -22 t-7.5 -24h-129z" />
<glyph unicode="3" horiz-adv-x="493" d="M201 760v-117q-60 -14 -64 -99l-100 50q-2 143 164 166zM224 448q38 -1 59.5 24.5t20.5 72.5q-1 82 -57 98v117q194 -16 191 -217q-1 -68 -22.5 -106t-72.5 -52q115 -36 107 -198q-2 -45 -15 -79t-31 -53.5t-45 -32t-51.5 -17t-56.5 -5.5v134q62 2 61 90q0 26 -8 49 t-21 38t-28.5 24.5t-30.5 10.5v102zM152 248q0 -25 1 -39t5.5 -31t15 -27.5t27.5 -16.5v-134q-161 43 -159 198z" />
<glyph unicode="4" horiz-adv-x="428" d="M192 269v-114h-177l1 111l180 323v-221l-66 -99h62zM372 760v-491h41v-114h-41v-155h-122v691l40 69h82z" />
<glyph unicode="5" horiz-adv-x="447" d="M397 760v-128h-205l-22 -163q20 9 39 6v-107q-47 -11 -61 -39l-96 73l41 358h304zM186 0q-44 3 -72 18t-49 55t-30 110l109 34q-4 -82 42 -83v-134zM244 134q25 1 38 32t11 71q2 90 -33 126v107q152 -30 149 -254q1 -194 -165 -216v134z" />
<glyph unicode="6" horiz-adv-x="471" d="M310 546q0 89 -46 91v123q83 -11 121.5 -62t37.5 -149l-113 -48v45zM172 268q0 -125 43 -136v-132q-185 8 -175 372q-1 398 177 388v-123q-63 6 -57 -210q13 32 57 40v-110q-45 -16 -45 -89zM264 133q28 2 42 50t4.5 102.5t-40.5 72.5v108q166 -32 157 -233 q2 -219 -163 -233v133z" />
<glyph unicode="7" horiz-adv-x="400" d="M15 644v116h370v-116q-24 -51 -27 -78h-126q10 41 27 78h-244zM218 517h123q-89 -216 -118 -517h-129q45 303 124 517z" />
<glyph unicode="8" horiz-adv-x="486" d="M206 339q-7 -2 -12.5 -4.5t-9.5 -7.5t-6.5 -8.5t-4.5 -11.5l-3 -12t-1.5 -14t-0.5 -13v-14v-13v-55q0 -50 42 -62v-124q-58 9 -97 39t-54.5 68t-19.5 81t1.5 76.5t14.5 55.5q24 58 74 65q-35 21 -55.5 58t-24.5 78.5t6 84.5t31 77t55.5 56t75.5 21v-115q-52 2 -54 -95 q-2 -99 43 -103v-108zM270 760q40 1 74.5 -21t55.5 -56t31 -77t6 -84.5t-24 -78.5t-55 -58q47 -7 70 -57.5t20 -121.5q-10 -181 -172 -206v124q47 9 50 65q1 89 -5 99q-13 44 -44 49v110q48 5 46 103q-1 97 -53 95v115z" />
<glyph unicode="9" horiz-adv-x="471" d="M157 213q0 -89 46 -91v-123q-83 11 -121.5 62t-37.5 149l113 48v-45zM292 492q0 125 -43 136v132q185 -8 175 -372q1 -398 -177 -388v123q63 -6 57 210q-13 -32 -57 -40v110q45 16 45 89zM204 628q-28 -2 -42 -50t-4.5 -102.5t40.5 -72.5v-108q-166 32 -157 233 q-2 219 163 233v-133z" />
<glyph unicode=":" horiz-adv-x="187" d="M93 0q-25 0 -41.5 17.5t-16.5 41.5q0 25 17 41.5t41 16.5t41.5 -16.5t17.5 -41.5q0 -26 -17 -42.5t-42 -16.5zM152 325q0 -26 -17 -42.5t-42 -16.5t-41.5 17.5t-16.5 41.5q0 25 17 41.5t41 16.5t41.5 -16.5t17.5 -41.5z" />
<glyph unicode=";" horiz-adv-x="187" d="M152 60v-6q-1 -56 -75 -104q20 25 16 50h-10q-1 1 -2 1h-2q-17 4 -30.5 18.5t-13.5 38.5v1q0 42 42 56h2q1 1 2 1l7 1h5q26 0 42 -16.5t17 -40.5zM152 325q0 -26 -17 -42.5t-42 -16.5q-17 0 -30.5 8.5t-20.5 21.5t-7 29q0 25 17 41.5t41 16.5t41.5 -16.5t17.5 -41.5z" />
<glyph unicode="&#x3c;" horiz-adv-x="365" d="M330 678v-98l-199 -199l199 -199v-94l-295 295z" />
<glyph unicode="=" horiz-adv-x="416" d="M35 364h346v-77h-346v77zM35 484h346v-77h-346v77z" />
<glyph unicode="&#x3e;" horiz-adv-x="365" d="M35 678l295 -295l-295 -295v94l199 199l-199 199v98z" />
<glyph unicode="?" horiz-adv-x="458" d="M201 760v-107q-61 -5 -65 -109l-100 50q-1 143 165 166zM163 163q-4 51 4 103t32 99.5t61 74.5q53 35 52 125q-6 74 -52 87v108q155 -26 161 -200q2 -135 -86 -203q-88 -79 -81 -194h-91zM208 0q-25 0 -41.5 17.5t-16.5 41.5q0 25 17 41.5t41 16.5q12 0 22.5 -4 t18.5 -11.5t13 -18.5t5 -24q0 -26 -17 -42.5t-42 -16.5z" />
<glyph unicode="@" horiz-adv-x="770" d="M175 269q0 117 77.5 202t184.5 85q67 0 88 -58l28 45h82q-149 -294 -149 -322q0 -41 43 -41q32 0 62.5 26t50.5 65t32.5 83t12.5 80q0 108 -73.5 173.5t-188.5 65.5q-95 0 -169 -48.5t-114 -130.5t-40 -182q0 -125 84.5 -200t218.5 -75q57 0 112 20t95.5 50.5t70.5 69.5 l27 -27q-52 -66 -133.5 -108t-177.5 -42q-158 0 -261 89t-103 232q0 87 30.5 160.5t83 124.5t125.5 79.5t156 28.5q133 0 219 -74t86 -193q0 -75 -26.5 -146t-78.5 -119.5t-118 -48.5q-19 0 -35 6t-28 17t-19 26.5t-7 34.5q-65 -73 -136 -73q-52 0 -82 36t-30 89zM253 250 q0 -14 6.5 -27t18.5 -20.5t25 -7.5q43 0 88 47t72.5 109.5t27.5 111.5q0 58 -49 58q-43 0 -88.5 -47.5t-73 -111t-27.5 -112.5z" />
<glyph unicode="A" d="M136 549l62 -273l-53 -276h-130zM184 760h111l162 -760h-130l-26 121h-67l16 110l28 -1l-94 431v99z" />
<glyph unicode="B" horiz-adv-x="491" d="M50 759h129v-759h-129v759zM249 108q68 0 69 109t-63 113l-1 103q62 5 61 121q0 91 -69 89v117q190 -22 194 -200q1 -40 -4 -69.5t-12.5 -47t-21.5 -29.5t-27 -17.5t-34 -11.5q115 -35 108 -182q-3 -52 -15 -89.5t-35.5 -63.5t-60.5 -38.5t-89 -11.5v108z" />
<glyph unicode="C" horiz-adv-x="456" d="M159 227q0 -76 48 -96v-131q-145 24 -168 221q-4 143 1 309q6 206 166 229v-133q-46 -1 -47 -80v-319zM308 547q0 79 -46 81v132q83 -11 121 -61.5t38 -148.5l-113 -48v45zM308 213v45l113 -48q0 -98 -37.5 -148.5t-121.5 -61.5v133q46 1 46 80z" />
<glyph unicode="D" horiz-adv-x="460" d="M50 758h128v-758h-128v758zM425 304q0 -42 -2 -78q-17 -202 -162 -226v132q43 6 43 95v320q0 76 -46 80v133q27 -4 50 -13t39 -19.5t29 -28t21 -32.5t13.5 -38.5t8.5 -40t4 -43.5t1 -43v-43.5v-40.5q1 -71 1 -114z" />
<glyph unicode="E" horiz-adv-x="451" d="M249 643v116h167v-116h-167zM251 0v117h167v-117h-167zM50 760h129v-299h145v-116h-145v-345h-129v760z" />
<glyph unicode="F" horiz-adv-x="432" d="M249 643v116h168v-116h-168zM50 760h129v-299h145v-116h-145v-345h-129v760z" />
<glyph unicode="G" horiz-adv-x="460" d="M159 227q0 -76 48 -96v-131q-145 24 -166 190q-6 174 -1 340q6 206 166 229v-133q-44 -1 -47 -80v-319zM262 760q83 -11 121 -61.5t38 -148.5l-113 -48v45q1 79 -46 81v132zM262 133q23 2 31.5 13.5t8.5 38.5v66h-39v115h162v-366h-47l-19 37q-37 -32 -97 -37v133z" />
<glyph unicode="H" horiz-adv-x="512" d="M50 760h129v-302h46v-116h-46v-342h-129v760zM462 760v-760h-129v342h-46v116h46v302h129z" />
<glyph unicode="I" horiz-adv-x="229" d="M50 760h129v-760h-129v760z" />
<glyph unicode="J" horiz-adv-x="423" d="M21 261l113 33v-112q-7 -43 36 -63v-119q-155 11 -149 149v112zM388 760v-578q0 -52 -15.5 -89.5t-41.5 -56.5t-54 -27.5t-59 -8.5v119q45 11 40 63v578h130z" />
<glyph unicode="K" horiz-adv-x="474" d="M317 760h130l-86 -316l98 -444h-129l-81 370v131zM50 760h129v-760h-129v760z" />
<glyph unicode="L" horiz-adv-x="432" d="M249 116h168v-116h-168v116zM50 0v760h129v-760h-129z" />
<glyph unicode="M" horiz-adv-x="584" d="M50 760h112l124 -367l64 136l1 -297l-81 -232l-220 681v79zM419 760h115v-760h-115v760zM165 0h-113v414l113 -305v-109z" />
<glyph unicode="N" horiz-adv-x="504" d="M325 760h129v-446l-129 303v143zM180 0h-129v501l129 -242v-259zM50 760h120l284 -606v-154h-61l-343 683v77z" />
<glyph unicode="O" horiz-adv-x="475" d="M153 227q0 -73 55 -96v-131q-154 14 -169 221q-4 141 1 310q6 208 158 229v-133q-44 -4 -45 -80v-320zM312 227v320q0 73 -46 80v133q160 -22 167 -226q6 -110 3.5 -203.5t-15 -163t-50.5 -113.5t-102 -54v131q43 7 43 96z" />
<glyph unicode="P" horiz-adv-x="455" d="M50 759h129v-759h-129v759zM246 760q180 -5 194 -206q4 -116 -49.5 -172.5t-136.5 -51.5v115q62 5 61 109q0 91 -69 89v117z" />
<glyph unicode="Q" horiz-adv-x="486" d="M157 227q0 -74 55 -96v-131q-157 23 -171 216q-6 199 -2 335q3 187 163 209v-133q-44 -6 -45 -80v-320zM316 227v320q-1 74 -46 80v133q153 -21 165 -208q3 -149 3.5 -225.5t-4 -127.5t-11.5 -69.5t-23 -40.5l51 -76l-75 -75l-54 76q-22 -10 -49 -14v131q43 7 43 96z" />
<glyph unicode="R" horiz-adv-x="466" d="M50 760h129v-760h-129v760zM314 0v248q2 74 -58 78v112q60 1 60 113q0 96 -69 89v117q185 -1 194 -173q10 -171 -70 -202q66 -24 66 -134l1 -248h-124z" />
<glyph unicode="S" horiz-adv-x="501" d="M343 212q0 63 -96 117l-80 52q-55 38 -84.5 76.5t-29.5 83.5q-3 195 170 219v-134q-43 -3 -43 -58q-3 -36 63 -83l114 -76q109 -77 109 -197q-4 -174 -179 -212v129q56 28 56 83zM224 0q-33 1 -65.5 17t-60.5 43.5t-45.5 73t-16.5 99.5l128 13q-4 -101 60 -121v-125z M290 760q153 -18 154 -177l-122 -17q3 50 -32 69v125z" />
<glyph unicode="T" horiz-adv-x="412" d="M397 760v-116h-126v-644h-130v644h-126v116h382z" />
<glyph unicode="U" horiz-adv-x="482" d="M206 0q-32 0 -59.5 8.5t-54 27.5t-42 56.5t-15.5 89.5v578h130v-578q-5 -52 41 -63v-119zM447 760v-578q0 -52 -15.5 -89.5t-42 -56.5t-54 -27.5t-59.5 -8.5l1 119q45 10 40 63v578h130z" />
<glyph unicode="V" horiz-adv-x="444" d="M333 338l-62 242l43 180h115zM260 0h-56l-189 760h130l152 -602z" />
<glyph unicode="W" horiz-adv-x="612" d="M519 397l-65 236l28 127h115zM205 0h-31l-159 760h130l112 -512zM443 0h-31l-157 594l48 166h38l142 -543z" />
<glyph unicode="X" horiz-adv-x="481" d="M35 760h129l282 -760h-129zM309 760h129l-108 -279l-70 159zM165 0h-129l107 278l71 -159z" />
<glyph unicode="Y" horiz-adv-x="454" d="M295 0h-118v258l-162 502h130l150 -498v-262zM310 760h129l-129 -353l-59 186z" />
<glyph unicode="Z" horiz-adv-x="440" d="M35 644v116h220l-56 -116h-164zM405 760v-134l-295 -626h-75v124l281 636h89zM399 116v-116h-220l55 116h165z" />
<glyph unicode="[" horiz-adv-x="198" d="M129 -48h34v-52h-113v860h113v-52h-34v-756z" />
<glyph unicode="\" horiz-adv-x="419" d="M74 760l310 -760h-39l-310 760h39z" />
<glyph unicode="]" horiz-adv-x="198" d="M69 -48v756h-34v52h113v-860h-113v52h34z" />
<glyph unicode="^" horiz-adv-x="357" d="M322 268h-58l-85 168l-84 -168h-60l113 225h62z" />
<glyph unicode="_" horiz-adv-x="450" d="M0 0h490v-20h-490v20z" />
<glyph unicode="`" horiz-adv-x="272" d="M117 988l120 -188h-82l-120 188h82z" />
<glyph unicode="a" d="M136 549l62 -273l-53 -276h-130zM184 760h111l162 -760h-130l-26 121h-67l16 110l28 -1l-94 431v99z" />
<glyph unicode="b" horiz-adv-x="491" d="M50 759h129v-759h-129v759zM249 108q68 0 69 109t-63 113l-1 103q62 5 61 121q0 91 -69 89v117q190 -22 194 -200q1 -50 -5 -82.5t-21.5 -50.5t-30.5 -26t-42 -16q115 -35 108 -182q-6 -105 -52 -154.5t-148 -48.5v108z" />
<glyph unicode="c" horiz-adv-x="456" d="M159 227q0 -76 48 -96v-131q-145 24 -168 221q-4 143 1 309q6 206 166 229v-133q-46 -1 -47 -80v-319zM308 547q0 79 -46 81v132q83 -11 121 -61.5t38 -148.5l-113 -48v45zM308 213v45l113 -48q0 -98 -37.5 -148.5t-121.5 -61.5v133q46 1 46 80z" />
<glyph unicode="d" horiz-adv-x="460" d="M50 758h128v-758h-128v758zM425 304q0 -42 -2 -78q-17 -202 -162 -226v132q43 6 43 95v320q0 76 -46 80v133q27 -4 50 -13t39 -19.5t29 -28t21 -32.5t13.5 -38.5t8.5 -40t4 -43.5t1 -43v-43.5v-40.5q1 -71 1 -114z" />
<glyph unicode="e" horiz-adv-x="453" d="M249 643v116h167v-116h-167zM251 0v117h167v-117h-167zM50 760h129v-299h145v-116h-145v-345h-129v760z" />
<glyph unicode="f" horiz-adv-x="432" d="M249 643v116h168v-116h-168zM50 760h129v-299h145v-116h-145v-345h-129v760z" />
<glyph unicode="g" horiz-adv-x="460" d="M159 227q0 -76 48 -96v-131q-145 24 -166 190q-6 174 -1 340q6 206 166 229v-133q-44 -1 -47 -80v-319zM262 760q83 -11 121 -61.5t38 -148.5l-113 -48v45q1 79 -46 81v132zM262 133q23 2 31.5 13.5t8.5 38.5v66h-39v115h162v-366h-47l-19 37q-37 -32 -97 -37v133z" />
<glyph unicode="h" horiz-adv-x="512" d="M50 760h129v-302h46v-116h-46v-342h-129v760zM462 760v-760h-129v342h-46v116h46v302h129z" />
<glyph unicode="i" horiz-adv-x="229" d="M50 760h129v-760h-129v760z" />
<glyph unicode="j" horiz-adv-x="423" d="M21 261l113 33v-112q-7 -43 36 -63v-119q-155 11 -149 149v112zM388 760v-578q0 -52 -15.5 -89.5t-41.5 -56.5t-54 -27.5t-59 -8.5v119q45 11 40 63v578h130z" />
<glyph unicode="k" horiz-adv-x="474" d="M317 760h130l-86 -316l98 -444h-129l-81 370v131zM50 760h129v-760h-129v760z" />
<glyph unicode="l" horiz-adv-x="432" d="M249 116h168v-116h-168v116zM50 0v760h129v-760h-129z" />
<glyph unicode="m" horiz-adv-x="584" d="M50 760h112l124 -367l64 136l1 -297l-81 -232l-220 681v79zM419 760h115v-760h-115v760zM165 0h-113v414l113 -305v-109z" />
<glyph unicode="n" horiz-adv-x="504" d="M325 760h129v-446l-129 303v143zM180 0h-129v501l129 -242v-259zM50 760h120l284 -606v-154h-61l-343 683v77z" />
<glyph unicode="o" horiz-adv-x="475" d="M153 227q0 -73 55 -96v-131q-154 14 -169 221q-4 141 1 310q6 208 158 229v-133q-44 -4 -45 -80v-320zM312 227v320q0 73 -46 80v133q160 -22 167 -226q6 -110 3.5 -203.5t-15 -163t-50.5 -113.5t-102 -54v131q43 7 43 96z" />
<glyph unicode="p" horiz-adv-x="460" d="M50 759h129v-759h-129v759zM246 760q180 -5 194 -206q4 -116 -49.5 -172.5t-136.5 -51.5v115q62 5 61 109q0 91 -69 89v117z" />
<glyph unicode="q" horiz-adv-x="486" d="M157 227q0 -74 55 -96v-131q-157 23 -171 216q-6 199 -2 335q3 187 163 209v-133q-44 -6 -45 -80v-320zM316 227v320q-1 74 -46 80v133q153 -21 165 -208q6 -180 2.5 -277t-10 -127t-27.5 -59l51 -76l-75 -75l-54 76q-22 -10 -49 -14v131q43 7 43 96z" />
<glyph unicode="r" horiz-adv-x="466" d="M50 760h129v-760h-129v760zM314 0v248q2 74 -58 78v112q60 1 60 113q0 96 -69 89v117q185 -1 194 -173q10 -171 -70 -202q66 -24 66 -134l1 -248h-124z" />
<glyph unicode="s" horiz-adv-x="501" d="M343 212q0 63 -96 117l-80 52q-114 79 -114 160q-3 195 170 219v-134q-43 -3 -43 -58q-3 -36 63 -83l114 -76q109 -77 109 -197q-4 -174 -179 -212v129q56 28 56 83zM224 0q-71 3 -130 65.5t-58 167.5l128 13q-4 -101 60 -121v-125zM290 760q153 -18 154 -177l-122 -17 q3 50 -32 69v125z" />
<glyph unicode="t" horiz-adv-x="412" d="M397 760v-116h-126v-644h-130v644h-126v116h382z" />
<glyph unicode="u" horiz-adv-x="482" d="M206 0q-32 0 -59.5 8.5t-54 27.5t-42 56.5t-15.5 89.5v578h130v-578q-5 -52 41 -63v-119zM447 760v-578q0 -52 -15.5 -89.5t-42 -56.5t-54 -27.5t-59.5 -8.5l1 119q45 10 40 63v578h130z" />
<glyph unicode="v" horiz-adv-x="444" d="M333 338l-62 242l43 180h115zM260 0h-56l-189 760h130l152 -602z" />
<glyph unicode="w" horiz-adv-x="612" d="M519 397l-65 236l28 127h115zM205 0h-31l-159 760h130l112 -512zM443 0h-31l-157 594l48 166h38l142 -543z" />
<glyph unicode="x" horiz-adv-x="481" d="M35 760h129l282 -760h-129zM309 760h129l-108 -279l-70 159zM165 0h-129l107 278l71 -159z" />
<glyph unicode="y" horiz-adv-x="454" d="M295 0h-118v258l-162 502h130l150 -498v-262zM310 760h129l-129 -353l-59 186z" />
<glyph unicode="z" horiz-adv-x="440" d="M35 644v116h220l-56 -116h-164zM405 760v-134l-295 -626h-75v124l281 636h89zM399 116v-116h-220l55 116h165z" />
<glyph unicode="{" horiz-adv-x="295" d="M143 375q28 -15 44 -51t20.5 -79t7.5 -90t4.5 -84.5t11.5 -61t29 -21.5v-32q-91 1 -124 106q-2 5 -33 194q-16 104 -68 103v32q55 1 73 108l30 197q32 107 122 108v-32q-35 2 -40 -86l-10 -177q-14 -106 -67 -134z" />
<glyph unicode="}" horiz-adv-x="295" d="M260 359q-52 1 -68 -103q-31 -189 -33 -194q-33 -105 -124 -106v32q26 -2 34 39.5t14 156.5q2 38 3 59q14 104 66 132q-53 28 -67 134l-10 177q-5 88 -40 86v32q90 -1 122 -108l31 -197q17 -107 72 -108v-32z" />
<glyph unicode="~" horiz-adv-x="484" d="M318 312q-26 0 -59.5 14t-60.5 27.5t-38 13.5q-42 0 -64 -72l-61 61q42 105 122 105q32 0 79 -23l77 -37q44 0 69 72l67 -40q-58 -121 -131 -121z" />
<glyph unicode="&#xa1;" horiz-adv-x="199" d="M47 701q0 26 17.5 42.5t41.5 16.5q25 0 41.5 -17.5t16.5 -41.5q0 -25 -17 -41.5t-41 -16.5q-25 0 -42 17t-17 41zM164 0h-129l38 598h63z" />
<glyph unicode="&#xa2;" horiz-adv-x="360" d="M163 565q-37 0 -35 -61v-239q0 -57 36 -72v-98q-81 14 -106.5 101t-18.5 297q5 154 124 171v-99zM240 506q0 59 -34 60v99q119 -16 118 -157l-84 -37v35zM206 195q34 0 34 60v34l84 -36q1 -141 -118 -158v100zM156 760h60v-60h-60v60zM156 60h60v-60h-60v60z" />
<glyph unicode="&#xa3;" horiz-adv-x="473" d="M438 611v-112l-113 -33v112q7 43 -37 63v119q150 -9 150 -149zM255 116h178v-116h-178v116zM35 406h36v172q0 52 15.5 89.5t42.5 56.5t54.5 27.5t58.5 9.5v-120q-46 -11 -41 -63v-172h42v-106h-42v-300h-130v300h-36v106z" />
<glyph unicode="&#xa4;" horiz-adv-x="531" d="M383 547q0 79 -46 81v132q83 -11 121 -61.5t38 -148.5l-113 -48v45zM383 213v45l113 -48q0 -98 -37.5 -148.5t-121.5 -61.5v133q46 1 46 80zM282 0q-80 13 -119 77t-45 190h-83l20 77h60q-1 21 -1 43h-59l20 77h39q0 33 0.5 53.5t4 53t9.5 53.5t18.5 46.5t29.5 41.5 t44 29t61 18v-133q-23 3 -35 -21.5t-12 -58.5v-82h157l-20 -77h-137v-43h127l-20 -77h-107v-40q0 -76 48 -96v-131z" />
<glyph unicode="&#xa5;" horiz-adv-x="454" d="M310 760h129l-129 -353l-59 186zM79 320h78l-142 440h130l132 -440h108v-77h-90v-53h90v-77h-89v-113h-117l-1 113h-99v77h98v53h-98v77z" />
<glyph unicode="&#xa8;" horiz-adv-x="327" d="M135 852q0 -22 -14.5 -37t-35.5 -15t-35.5 14.5t-14.5 37.5q0 22 14.5 37t35.5 15t35.5 -15t14.5 -37zM292 852q0 -22 -14 -37t-35 -15q-22 0 -36 15t-14 37t14.5 37t35.5 15t35 -15t14 -37z" />
<glyph unicode="&#xa9;" horiz-adv-x="790" d="M395 720q154 0 257 -103.5t103 -256.5q0 -154 -103.5 -257t-256.5 -103q-154 0 -257 103.5t-103 256.5q0 154 103.5 257t256.5 103zM395 35q139 0 232 93t93 232t-93 232t-232 93t-232 -92.5t-93 -232.5q0 -139 92.5 -232t232.5 -93zM410 563q-106 0 -170.5 -57.5 t-64.5 -154.5q0 -85 62.5 -139.5t151.5 -54.5q145 0 226 119l-37 25q-68 -98 -189 -98q-60 0 -109 40t-49 98q0 50 16 85.5t43.5 54t57.5 26.5t65 8q104 0 157 -84l42 22q-56 110 -202 110z" />
<glyph unicode="&#xaa;" horiz-adv-x="401" d="M126 602l46 -205l-39 -207h-98zM162 760h83l121 -570h-97l-20 91l-49 -1l11 83h21l-70 323v74z" />
<glyph unicode="&#xab;" horiz-adv-x="320" d="M285 514v-57l-75 -75l75 -75v-55l-131 131zM166 514v-57l-75 -75l75 -75v-55l-131 131z" />
<glyph unicode="&#xad;" horiz-adv-x="276" d="M15 444h246v-117h-246v117z" />
<glyph unicode="&#xae;" horiz-adv-x="483" d="M448 551q0 -86 -58.5 -146t-148.5 -60q-87 0 -146.5 60t-59.5 146q0 87 59 147t147 60q89 0 148 -60.5t59 -146.5zM420 551q0 77 -52.5 128t-126.5 51q-75 0 -126.5 -51.5t-51.5 -127.5t52.5 -127t125.5 -51q76 0 127.5 51.5t51.5 126.5zM181 527v-94h-40v236h112 q108 0 108 -72q0 -49 -55 -65l59 -98h-44l-57 93h-83zM254 631h-72v-66h68q72 0 72 35q0 31 -68 31z" />
<glyph unicode="&#xb2;" horiz-adv-x="235" d="M39 439v49h161v-49h-161zM105 760v-53q-26 -2 -28 -38l-42 21q0 60 70 70zM40 508q8 28 36 65q16 19 32.5 34.5t24 21t12.5 17.5t6 32q-1 23 -22 29v53q66 -11 68 -84q3 -60 -36 -86q-35 -30 -40 -38q-22 -24 -26 -44h-55z" />
<glyph unicode="&#xb3;" horiz-adv-x="248" d="M105 760v-53q-25 -2 -27 -38l-42 21q-1 60 69 70zM114 626q35 4 35 43q1 38 -24 42v49q82 -7 80 -91q-1 -56 -40 -67q48 -15 45 -84q-3 -75 -84 -79v57q8 -2 17 9.5t9 28.5q0 20 -11 35t-27 16v41zM105 439q-68 19 -67 84l47 21q-1 -41 20 -48v-57z" />
<glyph unicode="&#xb4;" horiz-adv-x="272" d="M155 988h82l-120 -188h-82z" />
<glyph unicode="&#xb7;" horiz-adv-x="170" d="M135 395q0 -22 -14.5 -37t-35.5 -15t-35.5 14.5t-14.5 37.5q0 22 14.5 37t35.5 15t35.5 -15t14.5 -37z" />
<glyph unicode="&#xb8;" horiz-adv-x="232" d="M115 56h82l-80 -158h-82z" />
<glyph unicode="&#xb9;" horiz-adv-x="149" d="M114 760v-321h-54v254h-25v38q18 6 25 29h54z" />
<glyph unicode="&#xba;" horiz-adv-x="374" d="M158 660q-29 0 -34 -60v-240q0 -55 41 -72v-98q-82 14 -107.5 100.5t-18.5 298.5q4 155 119 171v-100zM243 360v240q-6 60 -34 60v100q120 -17 118 -171q9 -126 0 -230q-7 -151 -116 -169v98q32 5 32 72z" />
<glyph unicode="&#xbb;" horiz-adv-x="320" d="M35 514l131 -131l-131 -131v55l75 75l-75 75v57zM154 514l131 -131l-131 -131v55l75 75l-75 75v57z" />
<glyph unicode="&#xbc;" horiz-adv-x="526" d="M381 760h39l-290 -760h-39zM367 151v-64h-100v63l102 181v-124l-37 -56h35zM468 427v-276h23v-64h-23v-87h-68v388l22 39h46zM141 760v-428h-73v339h-33v51q27 9 33 38h73z" />
<glyph unicode="&#xbd;" horiz-adv-x="589" d="M371 760h39l-290 -760h-39zM141 760v-428h-73v339h-33v51q26 7 33 38h73zM340 0v65h214v-65h-214zM427 427v-70q-34 -2 -36 -51l-56 28q-1 81 92 93zM342 92q9 36 45 82.5t74 72.5q21 16 27.5 40.5t-1.5 44t-26 25.5v70q87 -14 90 -112q3 -80 -48 -114q-6 -5 -18 -16.5 t-17.5 -16.5t-15 -14.5t-14.5 -15.5t-10.5 -14.5t-8.5 -16t-4 -15.5h-73z" />
<glyph unicode="&#xbe;" horiz-adv-x="620" d="M484 760h39l-300 -760h-39zM461 151v-64h-100v64l102 180v-124l-37 -56h35zM562 427v-276h23v-64h-23v-87h-69v388l23 39h46zM128 760v-71q-34 -2 -36 -50l-56 28q-1 80 92 93zM141 584q45 0 45 55q0 41 -32 55v66q109 -9 108 -122q-2 -74 -54 -89q65 -20 60 -111 q-2 -54 -28.5 -78.5t-83.5 -27.5v76q11 -3 23 12.5t12 38.5q0 27 -16 46.5t-34 21.5v57zM128 332q-90 25 -89 112l62 28q-1 -54 27 -64v-76z" />
<glyph unicode="&#xbf;" horiz-adv-x="462" d="M261 0v107q65 10 65 108l99 -49q2 -143 -164 -166zM299 597q1 -107 -22 -171q-27 -71 -75 -106q-56 -36 -52 -125q5 -74 52 -87v-108q-155 26 -162 200q-5 144 87 203q88 57 80 194h92zM195 701q0 24 16.5 41.5t41.5 17.5t41.5 -17.5t16.5 -41.5q0 -17 -8 -30t-21 -20.5 t-29 -7.5q-25 0 -41.5 17t-16.5 41z" />
<glyph unicode="&#xc0;" d="M136 549l62 -273l-53 -276h-130zM184 760h111l162 -760h-130l-26 121h-67l16 110l28 -1l-94 431v99zM217 988l120 -188h-82l-120 188h82z" />
<glyph unicode="&#xc1;" d="M136 549l62 -273l-53 -276h-130zM184 760h111l162 -760h-130l-26 121h-67l16 110l28 -1l-94 431v99zM255 988h82l-120 -188h-82z" />
<glyph unicode="&#xc2;" d="M136 549l62 -273l-53 -276h-130zM184 760h111l162 -760h-130l-26 121h-67l16 110l28 -1l-94 431v99zM236 924l-79 -124h-82l120 188h82l120 -188h-82z" />
<glyph unicode="&#xc3;" d="M136 549l62 -273l-53 -276h-130zM184 760h111l162 -760h-130l-26 121h-67l16 110l28 -1l-94 431v99zM294 800q-25 0 -73 22t-55 22q-34 0 -51 -58l-50 49q34 85 98 85q27 0 65 -18l62 -30q36 0 56 59l54 -33q-47 -98 -106 -98z" />
<glyph unicode="&#xc4;" d="M136 549l62 -273l-53 -276h-130zM184 760h111l162 -760h-130l-26 121h-67l16 110l28 -1l-94 431v99zM205 852q0 -22 -14.5 -37t-35.5 -15t-35.5 14.5t-14.5 37.5q0 22 14.5 37t35.5 15t35.5 -15t14.5 -37zM362 852q0 -22 -14 -37t-35 -15q-22 0 -36 15t-14 37t14.5 37 t35.5 15t35 -15t14 -37z" />
<glyph unicode="&#xc5;" d="M136 549l62 -273l-53 -276h-130zM248 905q32 -6 53 -22t28.5 -36t6 -41.5t-10.5 -40.5t-24 -31l156 -734h-130l-26 121h-67l17 109h27l-94 431v65q-39 25 -45 77q-1 85 88 102v-42q-44 -8 -45 -59q5 -31 23 -44h65q18 13 22 44q0 51 -44 59v42z" />
<glyph unicode="&#xc6;" horiz-adv-x="721" d="M519 643v116h167v-116h-167zM519 0v116h167v-116h-167zM320 760h129v-299h145v-116h-145v-345h-129v760zM270 298v-112h-94l-31 -186h-130l135 760h120l-76 -462h76z" />
<glyph unicode="&#xc7;" horiz-adv-x="457" d="M309 547q0 79 -45 81v132q83 -11 120.5 -62t37.5 -148l-113 -48v45zM309 213v45l113 -48q0 -97 -37.5 -148t-120.5 -62v133q45 1 45 80zM160 546v-319q0 -76 49 -96v-131q-19 3 -36 9l-56 -111h-82l76 150q-54 56 -63 177q-12 139 -7 305q7 206 166 229v-133 q-23 3 -35 -21.5t-12 -58.5z" />
<glyph unicode="&#xc8;" horiz-adv-x="453" d="M249 643v116h167v-116h-167zM251 0v117h167v-117h-167zM50 760h129v-299h145v-116h-145v-345h-129v760zM207 988l120 -188h-82l-120 188h82z" />
<glyph unicode="&#xc9;" horiz-adv-x="453" d="M249 643v116h167v-116h-167zM251 0v117h167v-117h-167zM50 760h129v-299h145v-116h-145v-345h-129v760zM245 988h82l-120 -188h-82z" />
<glyph unicode="&#xca;" horiz-adv-x="453" d="M249 643v116h167v-116h-167zM251 0v117h167v-117h-167zM50 760h129v-299h145v-116h-145v-345h-129v760zM226 924l-79 -124h-82l120 188h82l120 -188h-82z" />
<glyph unicode="&#xcb;" horiz-adv-x="453" d="M249 643v116h167v-116h-167zM251 0v117h167v-117h-167zM50 760h129v-299h145v-116h-145v-345h-129v760zM195 852q0 -22 -14.5 -37t-35.5 -15t-35.5 14.5t-14.5 37.5q0 22 14.5 37t35.5 15t35.5 -15t14.5 -37zM352 852q0 -22 -14 -37t-35 -15q-22 0 -36 15t-14 37t14.5 37 t35.5 15t35 -15t14 -37z" />
<glyph unicode="&#xcc;" horiz-adv-x="272" d="M80 760h129v-760h-129v760zM117 988l120 -188h-82l-120 188h82z" />
<glyph unicode="&#xcd;" horiz-adv-x="272" d="M70 760h129v-760h-129v760zM155 988h82l-120 -188h-82z" />
<glyph unicode="&#xce;" horiz-adv-x="352" d="M110 760h129v-760h-129v760zM178 924l-79 -124h-82l120 188h82l120 -188h-82z" />
<glyph unicode="&#xcf;" horiz-adv-x="327" d="M100 760h129v-760h-129v760zM135 852q0 -22 -14.5 -37t-35.5 -15t-35.5 14.5t-14.5 37.5q0 22 14.5 37t35.5 15t35.5 -15t14.5 -37zM292 852q0 -22 -14 -37t-35 -15q-22 0 -36 15t-14 37t14.5 37t35.5 15t35 -15t14 -37z" />
<glyph unicode="&#xd0;" horiz-adv-x="476" d="M66 758h128v-352h39v-116h-39v-290h-128v290h-31v116h31v352zM320 547q-2 19 -4 31t-7 24.5t-13.5 18.5t-21.5 6v133q25 -3 45.5 -11.5t35.5 -19t27.5 -27.5t20 -32t13.5 -37.5t9.5 -40t5.5 -43.5t3 -43.5t2 -45t2 -42.5q3 -71 3 -114q0 -42 -2 -78q-17 -202 -162 -226 v132q43 6 43 95v320z" />
<glyph unicode="&#xd1;" horiz-adv-x="504" d="M325 760h129v-446l-129 303v143zM180 0h-129v501l129 -242v-259zM50 760h120l284 -606v-154h-61l-343 683v77zM304 800q-25 0 -73 22t-55 22q-34 0 -51 -58l-50 49q34 85 98 85q27 0 65 -18l62 -30q36 0 56 59l54 -33q-47 -98 -106 -98z" />
<glyph unicode="&#xd2;" horiz-adv-x="475" d="M153 227q0 -73 55 -96v-131q-154 14 -169 221q-4 141 1 310q6 208 158 229v-133q-44 -4 -45 -80v-320zM312 227v320q0 73 -46 80v133q160 -22 167 -226q6 -110 3.5 -203.5t-15 -163t-50.5 -113.5t-102 -54v131q43 7 43 96zM212 988l120 -188h-82l-120 188h82z" />
<glyph unicode="&#xd3;" horiz-adv-x="475" d="M153 227q0 -73 55 -96v-131q-154 14 -169 221q-4 141 1 310q6 208 158 229v-133q-44 -4 -45 -80v-320zM312 227v320q0 73 -46 80v133q160 -22 167 -226q6 -110 3.5 -203.5t-15 -163t-50.5 -113.5t-102 -54v131q43 7 43 96zM250 988h82l-120 -188h-82z" />
<glyph unicode="&#xd4;" horiz-adv-x="475" d="M153 227q0 -73 55 -96v-131q-154 14 -169 221q-4 141 1 310q6 208 158 229v-133q-44 -4 -45 -80v-320zM312 227v320q0 73 -46 80v133q160 -22 167 -226q6 -110 3.5 -203.5t-15 -163t-50.5 -113.5t-102 -54v131q43 7 43 96zM231 924l-79 -124h-82l120 188h82l120 -188h-82 z" />
<glyph unicode="&#xd5;" horiz-adv-x="475" d="M153 227q0 -73 55 -96v-131q-154 14 -169 221q-4 141 1 310q6 208 158 229v-133q-44 -4 -45 -80v-320zM312 227v320q0 73 -46 80v133q160 -22 167 -226q6 -110 3.5 -203.5t-15 -163t-50.5 -113.5t-102 -54v131q43 7 43 96zM289 800q-25 0 -73 22t-55 22q-34 0 -51 -58 l-50 49q34 85 98 85q27 0 65 -18l62 -30q36 0 56 59l54 -33q-47 -98 -106 -98z" />
<glyph unicode="&#xd6;" horiz-adv-x="475" d="M153 227q0 -73 55 -96v-131q-154 14 -169 221q-4 141 1 310q6 208 158 229v-133q-44 -4 -45 -80v-320zM312 227v320q0 73 -46 80v133q160 -22 167 -226q6 -110 3.5 -203.5t-15 -163t-50.5 -113.5t-102 -54v131q43 7 43 96zM200 852q0 -22 -14.5 -37t-35.5 -15t-35.5 14.5 t-14.5 37.5q0 22 14.5 37t35.5 15t35.5 -15t14.5 -37zM357 852q0 -22 -14 -37t-35 -15q-22 0 -36 15t-14 37t14.5 37t35.5 15t35 -15t14 -37z" />
<glyph unicode="&#xd7;" horiz-adv-x="370" d="M280 236l-96 96l-95 -95l-54 54l96 96l-94 94l54 54l95 -95l95 95l54 -54l-95 -95l95 -95z" />
<glyph unicode="&#xd8;" horiz-adv-x="475" d="M198 627q-24 -1 -33 -21.5t-12 -58.5v-320q0 -11 1 -21l153 376q-9 44 -41 45v133q59 -8 97 -43l17 43h39l-30 -74q36 -57 36 -155q4 -45 6 -77t3.5 -74t1 -72t-2.5 -66t-8 -62t-14.5 -54t-21.5 -47.5t-30 -36.5t-39.5 -27.5t-50.5 -14.5v131q43 7 43 96v270l-139 -340 q13 -17 35 -26v-131q-50 8 -84 36l-15 -36h-39l26 64q-32 44 -47.5 141t-8.5 326q6 208 158 229v-133z" />
<glyph unicode="&#xd9;" horiz-adv-x="482" d="M206 0q-32 0 -59.5 8.5t-54 27.5t-42 56.5t-15.5 89.5v578h130v-578q-5 -52 41 -63v-119zM447 760v-578q0 -52 -15.5 -89.5t-42 -56.5t-54 -27.5t-59.5 -8.5l1 119q45 10 40 63v578h130zM217 988l120 -188h-82l-120 188h82z" />
<glyph unicode="&#xda;" horiz-adv-x="482" d="M206 0q-32 0 -59.5 8.5t-54 27.5t-42 56.5t-15.5 89.5v578h130v-578q-5 -52 41 -63v-119zM447 760v-578q0 -52 -15.5 -89.5t-42 -56.5t-54 -27.5t-59.5 -8.5l1 119q45 10 40 63v578h130zM255 988h82l-120 -188h-82z" />
<glyph unicode="&#xdb;" horiz-adv-x="482" d="M206 0q-32 0 -59.5 8.5t-54 27.5t-42 56.5t-15.5 89.5v578h130v-578q-5 -52 41 -63v-119zM447 760v-578q0 -52 -15.5 -89.5t-42 -56.5t-54 -27.5t-59.5 -8.5l1 119q45 10 40 63v578h130zM236 924l-79 -124h-82l120 188h82l120 -188h-82z" />
<glyph unicode="&#xdc;" horiz-adv-x="482" d="M206 0q-32 0 -59.5 8.5t-54 27.5t-42 56.5t-15.5 89.5v578h130v-578q-5 -52 41 -63v-119zM447 760v-578q0 -52 -15.5 -89.5t-42 -56.5t-54 -27.5t-59.5 -8.5l1 119q45 10 40 63v578h130zM205 852q0 -22 -14.5 -37t-35.5 -15t-35.5 14.5t-14.5 37.5q0 22 14.5 37t35.5 15 t35.5 -15t14.5 -37zM362 852q0 -22 -14 -37t-35 -15q-22 0 -36 15t-14 37t14.5 37t35.5 15t35 -15t14 -37z" />
<glyph unicode="&#xdd;" horiz-adv-x="454" d="M295 0h-118v258l-162 502h130l150 -498v-262zM310 760h129l-129 -353l-59 186zM245 988h82l-120 -188h-82z" />
<glyph unicode="&#xde;" horiz-adv-x="480" d="M50 759h129v-759h-129v759zM246 610q92 2 133 -34q22 -17 37.5 -53.5t22 -81t-0.5 -92t-26.5 -86t-60 -63t-97.5 -23.5v118q62 5 61 109q0 91 -69 89v117z" />
<glyph unicode="&#xdf;" horiz-adv-x="831" d="M343 212q0 63 -96 117l-80 52q-55 38 -84.5 76.5t-29.5 83.5q-3 195 170 219v-129q-40 -2 -43 -63q-3 -36 63 -83l114 -76q92 -65 107 -166l30 3q-4 -101 60 -121v-125q-79 4 -138 76q-48 -56 -129 -76v129q56 28 56 83zM796 212q0 -72 -46.5 -131.5t-132.5 -80.5v129 q56 28 56 83q0 63 -96 117l-80 52q-55 38 -84.5 76.5t-29.5 83.5q-1 18 1 34l-62 -9q3 50 -32 69v125q80 -11 124 -82q42 69 139 82v-125q-42 -14 -43 -67q-3 -36 63 -83l114 -76q109 -77 109 -197zM224 0q-33 1 -65.5 17t-60.5 43.5t-45.5 73t-16.5 99.5l128 13 q-4 -101 60 -121v-125zM620 760q58 -8 102.5 -53.5t51.5 -123.5l-122 -17q3 50 -32 69v125z" />
<glyph unicode="&#xe0;" d="M136 549l62 -273l-53 -276h-130zM184 760h111l162 -760h-130l-26 121h-67l15 109h29l-94 431v99zM217 988l120 -188h-82l-120 188h82z" />
<glyph unicode="&#xe1;" d="M136 549l62 -273l-53 -276h-130zM184 760h111l162 -760h-130l-26 121h-67l18 109h26l-94 431v99zM255 988h82l-120 -188h-82z" />
<glyph unicode="&#xe2;" d="M136 549l62 -273l-53 -276h-130zM184 760h111l162 -760h-130l-26 121h-67l15 109h29l-94 431v99zM236 924l-79 -124h-82l120 188h82l120 -188h-82z" />
<glyph unicode="&#xe3;" d="M184 760h111l162 -760h-130l-26 121h-67l17 109h27l-94 431v99zM136 549l62 -273l-53 -276h-130zM294 800q-25 0 -73 22t-55 22q-34 0 -51 -58l-50 49q34 85 98 85q27 0 65 -18l62 -30q36 0 56 59l54 -33q-47 -98 -106 -98z" />
<glyph unicode="&#xe4;" d="M136 549l62 -273l-53 -276h-130zM184 760h111l162 -760h-130l-26 121h-67l16 108l28 1l-94 431v99zM205 852q0 -22 -14.5 -37t-35.5 -15t-35.5 14.5t-14.5 37.5q0 22 14.5 37t35.5 15t35.5 -15t14.5 -37zM362 852q0 -22 -14 -37t-35 -15q-22 0 -36 15t-14 37t14.5 37 t35.5 15t35 -15t14 -37z" />
<glyph unicode="&#xe5;" d="M136 549l62 -273l-53 -276h-130zM248 905q53 -10 74 -44.5t12.5 -70t-33.5 -56.5l156 -734h-130l-26 121h-67l17 109h27l-94 431v65q-39 25 -45 77q-1 85 88 102v-42q-44 -8 -45 -59q5 -31 23 -44h65q18 13 22 44q0 51 -44 59v42z" />
<glyph unicode="&#xe6;" horiz-adv-x="721" d="M519 643v116h167v-116h-167zM519 0v116h167v-116h-167zM320 760h129v-299h145v-116h-145v-345h-129v760zM270 298v-112h-94l-31 -186h-130l135 760h120l-76 -462h76z" />
<glyph unicode="&#xe7;" horiz-adv-x="457" d="M309 547q0 79 -45 81v132q83 -11 120.5 -62t37.5 -148l-113 -48v45zM309 213v45l113 -48q0 -97 -37.5 -148t-120.5 -62v133q45 1 45 80zM160 546v-319q0 -76 49 -96v-131q-19 3 -36 9l-56 -111h-82l76 150q-54 56 -63 177q-12 139 -7 305q7 206 166 229v-133 q-23 3 -35 -21.5t-12 -58.5z" />
<glyph unicode="&#xe8;" horiz-adv-x="451" d="M249 643v116h167v-116h-167zM249 0v117h167v-117h-167zM50 760h129v-299h145v-116h-145v-345h-129v760zM207 988l120 -188h-82l-120 188h82z" />
<glyph unicode="&#xe9;" horiz-adv-x="451" d="M249 643v116h167v-116h-167zM249 0v116h167v-116h-167zM50 760h129v-299h145v-116h-145v-345h-129v760zM245 988h82l-120 -188h-82z" />
<glyph unicode="&#xea;" horiz-adv-x="451" d="M249 643v116h167v-116h-167zM251 0v116h167v-116h-167zM50 760h129v-299h145v-116h-145v-345h-129v760zM226 924l-79 -124h-82l120 188h82l120 -188h-82z" />
<glyph unicode="&#xeb;" horiz-adv-x="451" d="M249 643v116h167v-116h-167zM249 0v116h167v-116h-167zM50 760h129v-299h145v-116h-145v-345h-129v760zM195 852q0 -22 -14.5 -37t-35.5 -15t-35.5 14.5t-14.5 37.5q0 22 14.5 37t35.5 15t35.5 -15t14.5 -37zM352 852q0 -22 -14 -37t-35 -15q-22 0 -36 15t-14 37t14.5 37 t35.5 15t35 -15t14 -37z" />
<glyph unicode="&#xec;" horiz-adv-x="272" d="M80 760h129v-760h-129v760zM117 988l120 -188h-82l-120 188h82z" />
<glyph unicode="&#xed;" horiz-adv-x="272" d="M70 760h129v-760h-129v760zM155 988h82l-120 -188h-82z" />
<glyph unicode="&#xee;" horiz-adv-x="352" d="M110 760h129v-760h-129v760zM176 924l-79 -124h-82l120 188h82l120 -188h-82z" />
<glyph unicode="&#xef;" horiz-adv-x="327" d="M100 760h129v-760h-129v760zM135 852q0 -22 -14.5 -37t-35.5 -15t-35.5 14.5t-14.5 37.5q0 22 14.5 37t35.5 15t35.5 -15t14.5 -37zM292 852q0 -22 -14 -37t-35 -15q-22 0 -36 15t-14 37t14.5 37t35.5 15t35 -15t14 -37z" />
<glyph unicode="&#xf0;" horiz-adv-x="476" d="M66 758h128v-352h39v-116h-39v-290h-128v290h-31v116h31v352zM320 547q-3 26 -6 40.5t-13 27t-27 12.5v133q31 -4 55.5 -16.5t40.5 -26.5t28 -39.5t18.5 -44t11 -53t5.5 -52.5t2.5 -57t2.5 -53q3 -71 3 -114q0 -42 -2 -78q-17 -202 -162 -226v132q43 6 43 95v320z" />
<glyph unicode="&#xf1;" horiz-adv-x="504" d="M50 760h120l284 -606v-154h-63l-341 683v77zM180 0h-129v501l129 -242v-259zM325 760h129v-446l-129 303v143zM304 800q-25 0 -73 22t-55 22q-34 0 -51 -58l-50 49q34 85 98 85q27 0 65 -18l62 -30q36 0 56 59l54 -33q-47 -98 -106 -98z" />
<glyph unicode="&#xf2;" horiz-adv-x="475" d="M153 227q0 -73 55 -96v-131q-145 23 -162 225q-11 137 -6 306q6 208 158 229v-133q-42 1 -45 -80v-320zM312 227v320q0 72 -46 80v133q160 -22 166 -215q8 -204 -1 -320q-17 -202 -162 -225v131q43 7 43 96zM212 988l120 -188h-82l-120 188h82z" />
<glyph unicode="&#xf3;" horiz-adv-x="475" d="M153 547v-320q0 -73 55 -96v-131q-145 23 -162 225q-11 137 -6 306q6 208 158 229v-133q-45 -3 -45 -80zM312 227v320q-2 74 -46 80v133q160 -22 169 -215q5 -204 -4 -320q-17 -202 -162 -225v131q43 7 43 96zM250 988h82l-120 -188h-82z" />
<glyph unicode="&#xf4;" horiz-adv-x="475" d="M153 227q0 -73 55 -96v-131q-145 23 -162 225q-11 137 -6 306q6 208 158 229v-133q-44 -3 -45 -80v-320zM312 227v320q0 71 -46 80v133q160 -22 170 -216q4 -203 -5 -319q-17 -202 -162 -225v131q43 7 43 96zM231 924l-79 -124h-82l120 188h82l120 -188h-82z" />
<glyph unicode="&#xf5;" horiz-adv-x="475" d="M312 227v320q0 74 -46 80v133q160 -22 168 -216q6 -113 3.5 -208.5t-15 -166t-50.5 -115t-103 -54.5v131q43 7 43 96zM198 627q-45 0 -45 -80v-320q0 -73 55 -96v-131q-145 23 -162 225q-11 137 -6 306q6 208 158 229v-133zM289 800q-25 0 -73 22t-55 22q-34 0 -51 -58 l-50 49q34 85 98 85q27 0 65 -18l62 -30q36 0 56 59l54 -33q-47 -98 -106 -98z" />
<glyph unicode="&#xf6;" horiz-adv-x="475" d="M153 227q0 -73 55 -96v-131q-145 23 -162 225q-11 137 -6 306q6 208 158 229v-133q-43 -2 -45 -80v-320zM312 227v320q-1 72 -46 80v133q160 -22 167 -217q7 -202 -2 -318q-17 -202 -162 -225v131q43 7 43 96zM200 852q0 -22 -14.5 -37t-35.5 -15t-35.5 14.5t-14.5 37.5 q0 22 14.5 37t35.5 15t35.5 -15t14.5 -37zM357 852q0 -22 -14 -37t-35 -15q-22 0 -36 15t-14 37t14.5 37t35.5 15t35 -15t14 -37z" />
<glyph unicode="&#xf7;" horiz-adv-x="416" d="M35 424h346v-77h-346v77zM262 252q0 -24 -16.5 -41.5t-41.5 -17.5t-41.5 17.5t-16.5 41.5q0 25 17 41.5t41 16.5q25 0 41.5 -17t16.5 -41zM262 518q0 -24 -16.5 -41.5t-41.5 -17.5t-41.5 17.5t-16.5 41.5q0 25 17 41.5t41 16.5q25 0 41.5 -17t16.5 -41z" />
<glyph unicode="&#xf8;" horiz-adv-x="475" d="M198 627q-24 -1 -33 -21.5t-12 -58.5v-320q0 -11 1 -21l153 376q-9 44 -41 45v133q59 -8 97 -43l17 43h39l-30 -74q36 -57 36 -155q5 -66 7.5 -109.5t3 -102t-4 -97t-16 -81t-30 -69t-48 -46.5t-68.5 -26v131q43 7 43 96v270l-139 -340q13 -17 35 -26v-131q-50 8 -84 36 l-15 -36h-39l26 64q-32 44 -47.5 141t-8.5 326q6 208 158 229v-133z" />
<glyph unicode="&#xf9;" horiz-adv-x="482" d="M206 0q-32 0 -59.5 8.5t-54 27.5t-42 56.5t-15.5 89.5v578h130v-578q-5 -52 41 -63v-119zM447 760v-578q0 -52 -15.5 -89.5t-42 -56.5t-54 -27.5t-59.5 -8.5l1 119q45 10 40 63v578h130zM217 988l120 -188h-82l-120 188h82z" />
<glyph unicode="&#xfa;" horiz-adv-x="482" d="M206 0q-32 0 -59.5 8.5t-54 27.5t-42 56.5t-15.5 89.5v578h130v-578q-5 -52 41 -63v-119zM447 760v-578q0 -52 -15.5 -89.5t-42 -56.5t-54 -27.5t-59.5 -8.5l1 119q45 10 40 63v578h130zM255 988h82l-120 -188h-82z" />
<glyph unicode="&#xfb;" horiz-adv-x="482" d="M206 0q-32 0 -59.5 8.5t-54 27.5t-42 56.5t-15.5 89.5v578h130v-578q-5 -52 41 -63v-119zM447 760v-578q0 -52 -15.5 -89.5t-42 -56.5t-54 -27.5t-59.5 -8.5l1 119q45 10 40 63v578h130zM236 924l-79 -124h-82l120 188h82l120 -188h-82z" />
<glyph unicode="&#xfc;" horiz-adv-x="482" d="M206 0q-32 0 -59.5 8.5t-54 27.5t-42 56.5t-15.5 89.5v578h130v-578q-5 -52 41 -63v-119zM447 760v-578q0 -52 -15.5 -89.5t-42 -56.5t-54 -27.5t-59.5 -8.5l1 119q45 10 40 63v578h130zM205 852q0 -22 -14.5 -37t-35.5 -15t-35.5 14.5t-14.5 37.5q0 22 14.5 37t35.5 15 t35.5 -15t14.5 -37zM362 852q0 -22 -14 -37t-35 -15q-22 0 -36 15t-14 37t14.5 37t35.5 15t35 -15t14 -37z" />
<glyph unicode="&#xfd;" horiz-adv-x="454" d="M295 0h-118v258l-162 502h130l150 -498v-262zM310 760h129l-129 -353l-59 186zM245 988h82l-120 -188h-82z" />
<glyph unicode="&#xfe;" horiz-adv-x="480" d="M50 759h129v-759h-129v759zM246 610q92 2 133 -34q26 -20 44 -67.5t18 -103.5t-15 -108t-60 -86.5t-112 -33.5v118q62 5 61 109q0 91 -69 89v117z" />
<glyph unicode="&#xff;" horiz-adv-x="454" d="M295 0h-118v258l-162 502h130l150 -498v-262zM310 760h129l-129 -353l-59 186zM195 852q0 -22 -14.5 -37t-35.5 -15t-35.5 14.5t-14.5 37.5q0 22 14.5 37t35.5 15t35.5 -15t14.5 -37zM352 852q0 -22 -14 -37t-35 -15q-22 0 -36 15t-14 37t14.5 37t35.5 15t35 -15t14 -37z " />
<glyph unicode="&#x152;" horiz-adv-x="766" d="M153 227q0 -73 55 -96v-131q-145 23 -162 225q-11 137 -6 306q6 208 158 229v-133q-43 -1 -45 -80v-320zM564 643v116h167v-116h-167zM564 0v116h167v-116h-167zM365 760h129v-299h145v-116h-145v-345h-129v46q-37 -37 -96 -46v131q43 7 43 96v320q0 70 -46 80v133 q61 -8 99 -45v45z" />
<glyph unicode="&#x153;" horiz-adv-x="766" d="M153 227q0 -73 55 -96v-131q-145 23 -162 225q-11 137 -6 306q6 208 158 229v-133q-43 -1 -45 -80v-320zM564 643v116h167v-116h-167zM564 0v116h167v-116h-167zM365 760h129v-299h145v-116h-145v-345h-129v46q-37 -37 -96 -46v131q43 7 43 96v320q0 70 -46 80v133 q61 -8 99 -45v45z" />
<glyph unicode="&#x2c6;" horiz-adv-x="392" d="M196 924l-79 -124h-82l120 188h82l120 -188h-82z" />
<glyph unicode="&#x2dc;" horiz-adv-x="405" d="M264 800q-25 0 -73 22t-55 22q-34 0 -51 -58l-50 49q34 85 98 85q27 0 65 -18l62 -30q36 0 56 59l54 -33q-47 -98 -106 -98z" />
<glyph unicode="&#x2000;" horiz-adv-x="494" />
<glyph unicode="&#x2001;" horiz-adv-x="988" />
<glyph unicode="&#x2002;" horiz-adv-x="494" />
<glyph unicode="&#x2003;" horiz-adv-x="988" />
<glyph unicode="&#x2004;" horiz-adv-x="329" />
<glyph unicode="&#x2005;" horiz-adv-x="247" />
<glyph unicode="&#x2006;" horiz-adv-x="164" />
<glyph unicode="&#x2007;" horiz-adv-x="164" />
<glyph unicode="&#x2008;" horiz-adv-x="123" />
<glyph unicode="&#x2009;" horiz-adv-x="197" />
<glyph unicode="&#x200a;" horiz-adv-x="54" />
<glyph unicode="&#x2010;" horiz-adv-x="276" d="M15 444h246v-117h-246v117z" />
<glyph unicode="&#x2011;" horiz-adv-x="276" d="M15 444h246v-117h-246v117z" />
<glyph unicode="&#x2012;" horiz-adv-x="276" d="M15 444h246v-117h-246v117z" />
<glyph unicode="&#x2013;" horiz-adv-x="428" d="M15 444h398v-117h-398v117z" />
<glyph unicode="&#x2014;" horiz-adv-x="513" d="M15 444h483v-117h-483v117z" />
<glyph unicode="&#x2018;" horiz-adv-x="190" d="M96 710q13 0 24 -5t18.5 -13t12 -18.5t4.5 -22.5q0 -25 -17.5 -41.5t-41.5 -16.5q-30 0 -48.5 25t-4.5 65.5t70 76.5q-20 -25 -17 -50z" />
<glyph unicode="&#x2019;" horiz-adv-x="189" d="M93 643q-25 0 -41.5 17t-16.5 41t16.5 41.5t41.5 17.5q18 0 32.5 -9.5t21.5 -27t4.5 -38t-21.5 -45.5t-53 -47q20 25 16 50z" />
<glyph unicode="&#x201a;" horiz-adv-x="189" d="M93 2q-25 0 -41.5 17t-16.5 41q0 25 17 42t41 17q18 0 32.5 -9.5t21.5 -27t4.5 -38t-21.5 -45.5t-53 -48q20 26 16 51z" />
<glyph unicode="&#x201c;" horiz-adv-x="332" d="M239 710q24 0 41 -17t17 -42t-17 -41.5t-41 -16.5q-31 0 -49 25t-3.5 66t68.5 76q-19 -25 -16 -50zM96 710q26 0 42.5 -17.5t16.5 -41.5q0 -25 -17.5 -41.5t-41.5 -16.5q-30 0 -48.5 25t-4.5 65.5t70 76.5q-20 -25 -17 -50z" />
<glyph unicode="&#x201d;" horiz-adv-x="332" d="M93 643q-25 0 -41.5 17t-16.5 41t16.5 41.5t41.5 17.5q18 0 32.5 -9.5t21.5 -27t4.5 -38t-21.5 -45.5t-53 -47q20 25 16 50zM236 643q-25 0 -42 17t-17 41q0 26 17.5 42.5t41.5 16.5q31 0 49 -25t3.5 -66t-69.5 -76q20 25 17 50z" />
<glyph unicode="&#x201e;" horiz-adv-x="332" d="M93 0q-25 0 -41.5 17t-16.5 41t16.5 41.5t41.5 17.5q18 0 32.5 -9.5t21.5 -27t4.5 -38t-21.5 -45.5t-53 -47q20 25 16 50zM236 0q-25 0 -42 17t-17 41q0 26 17.5 42.5t41.5 16.5q31 0 49 -25t3.5 -66t-69.5 -76q20 25 17 50z" />
<glyph unicode="&#x2022;" horiz-adv-x="380" d="M35 555h310v-310h-310v310z" />
<glyph unicode="&#x2026;" horiz-adv-x="787" d="M93 0q-25 0 -41.5 17.5t-16.5 41.5q0 25 17 41.5t41 16.5t41.5 -16.5t17.5 -41.5q0 -26 -17 -42.5t-42 -16.5zM693 0q-25 0 -41.5 17.5t-16.5 41.5q0 25 17 41.5t41 16.5t41.5 -16.5t17.5 -41.5q0 -26 -17 -42.5t-42 -16.5zM393 0q-25 0 -41.5 17.5t-16.5 41.5 q0 25 17 41.5t41 16.5t41.5 -16.5t17.5 -41.5q0 -26 -17 -42.5t-42 -16.5z" />
<glyph unicode="&#x202f;" horiz-adv-x="197" />
<glyph unicode="&#x205f;" horiz-adv-x="247" />
<glyph unicode="&#x20ac;" horiz-adv-x="531" d="M383 547q0 79 -46 81v132q83 -11 121 -61.5t38 -148.5l-113 -48v45zM383 213v45l113 -48q0 -98 -37.5 -148.5t-121.5 -61.5v133q46 1 46 80zM282 0q-80 13 -119 77t-45 190h-83l20 77h60q-1 21 -1 43h-59l20 77h39q0 33 0.5 53.5t4 53t9.5 53.5t18.5 46.5t29.5 41.5 t44 29t61 18v-133q-23 3 -35 -21.5t-12 -58.5v-82h157l-20 -77h-137v-43h127l-20 -77h-107v-40q0 -76 48 -96v-131z" />
<glyph unicode="&#x25fc;" horiz-adv-x="760" d="M0 760h760v-760h-760v760z" />
</font>
</defs>
</svg>
